<?xml version="1.0" encoding="utf-8"?>
<!-- Generator: Adobe Illustrator 25.2.0, SVG Export Plug-In . SVG Version: 6.00 Build 0)  -->
<svg version="1.1" id="_016_FOOD" xmlns="http://www.w3.org/2000/svg" xmlns:xlink="http://www.w3.org/1999/xlink" x="0px" y="0px"
	 viewBox="0 0 24 24" style="enable-background:new 0 0 24 24;" xml:space="preserve">
<style type="text/css">
	.st0{fill:#F7F6F5;}
</style>
<path class="st0" d="M12,22C6.5,22,2,17.5,2,12S6.5,2,12,2c5.5,0,10,4.5,10,10c0,3.2-1.5,6.2-4.1,8.1c-0.4,0.3-1.1,0.2-1.4-0.2
	c-0.3-0.4-0.2-1.1,0.2-1.4c3.6-2.6,4.3-7.6,1.7-11.2S10.8,2.9,7.2,5.6s-4.3,7.6-1.7,11.2c1.5,2,3.9,3.3,6.4,3.3c0.5,0,1,0,1.5-0.1
	c0.6-0.1,1.1,0.3,1.2,0.8c0.1,0.6-0.3,1.1-0.8,1.2C13.3,22,12.6,22,12,22z"/>
<path class="st0" d="M12,16c-2.2,0-4-1.8-4-4s1.8-4,4-4s4,1.8,4,4S14.2,16,12,16z M12,10c-1.1,0-2,0.9-2,2s0.9,2,2,2s2-0.9,2-2
	S13.1,10,12,10z"/>
<circle class="st0" cx="18" cy="12" r="1"/>
<circle class="st0" cx="12" cy="18" r="1"/>
<circle class="st0" cx="6" cy="12" r="1"/>
<circle class="st0" cx="12" cy="6" r="1"/>
<circle class="st0" cx="17.7" cy="6.4" r="1"/>
<circle class="st0" cx="17.6" cy="17.6" r="1"/>
<circle class="st0" cx="6.4" cy="17.6" r="1"/>
<circle class="st0" cx="6.4" cy="6.4" r="1"/>
</svg>
